<svg width="802" height="849" viewBox="0 0 802 849" fill="none" xmlns="http://www.w3.org/2000/svg">
<path opacity="0.1" d="M145.249 804.923C137.536 806.882 129.467 804.596 121.522 804.499C113.578 804.402 104.308 807.833 102.361 815.75C99.7459 826.383 111.841 834.399 122.197 837.048C162.39 847.329 204.938 833.985 246.018 839.428C263.329 841.722 280.164 847.334 297.57 848.672C337.409 851.736 376.335 832.263 416.229 834.458C436.216 835.558 455.642 842.081 475.631 843.128C523.457 845.632 570.641 816.777 617.461 827.116C630.682 830.035 643.094 835.988 656.194 839.435C689.312 848.15 724.178 840.382 757.518 832.61C764.138 831.067 772.119 828.063 772.934 821.137C773.835 813.495 765.296 808.703 758.192 806.261C680.512 779.562 597.345 765.418 516.321 777.758C497.882 780.566 479.496 784.739 460.858 784.463C419.606 783.853 381.7 761.738 341.201 753.649C264.464 738.321 187.739 774.081 117.293 808.91" fill="#6C63FF"/>
<path d="M263.831 577.297H238.359V782.215C238.359 782.215 402.77 832.894 562.549 782.215V577.297H263.831Z" fill="#3F3D56"/>
<path d="M398.139 601.534C486.382 601.534 557.918 591.175 557.918 578.398C557.918 565.62 486.382 555.262 398.139 555.262C309.895 555.262 238.359 565.62 238.359 578.398C238.359 591.175 309.895 601.534 398.139 601.534Z" fill="#3F3D56"/>
<path opacity="0.1" d="M398.139 601.534C486.382 601.534 557.918 591.175 557.918 578.398C557.918 565.62 486.382 555.262 398.139 555.262C309.895 555.262 238.359 565.62 238.359 578.398C238.359 591.175 309.895 601.534 398.139 601.534Z" fill="black"/>
<path d="M583.869 332.466C543.562 474.245 405.501 562.052 405.501 562.052C405.501 562.052 332.791 419.991 373.098 278.212C413.405 136.434 551.466 48.627 551.466 48.627C551.466 48.627 624.176 190.688 583.869 332.466Z" fill="#3F3D56"/>
<path d="M217.188 332.466C257.495 474.245 395.555 562.052 395.555 562.052C395.555 562.052 468.266 419.991 427.959 278.212C387.652 136.434 249.591 48.627 249.591 48.627C249.591 48.627 176.881 190.688 217.188 332.466Z" fill="#6C63FF"/>
<path d="M276.417 301.996C387.02 404.446 400.529 561.936 400.529 561.936C400.529 561.936 234.716 553.321 124.112 450.871C13.5094 348.421 0 190.932 0 190.932C0 190.932 165.814 199.546 276.417 301.996Z" fill="#3F3D56"/>
<path d="M524.644 301.996C414.041 404.446 400.531 561.936 400.531 561.936C400.531 561.936 566.345 553.321 676.948 450.871C787.551 348.421 801.061 190.932 801.061 190.932C801.061 190.932 635.247 199.546 524.644 301.996Z" fill="#3F3D56"/>
<path d="M400.452 96.9505C428.588 96.9505 451.396 75.2474 451.396 48.4753C451.396 21.7031 428.588 0 400.452 0C372.316 0 349.508 21.7031 349.508 48.4753C349.508 75.2474 372.316 96.9505 400.452 96.9505Z" fill="#6C63FF"/>
<path d="M302.808 579.327C306.42 591.799 318.97 599.387 318.97 599.387C318.97 599.387 325.663 586.753 322.051 574.281C318.439 561.808 305.889 554.221 305.889 554.221C305.889 554.221 299.196 566.854 302.808 579.327Z" fill="#6C63FF"/>
<path d="M201.01 769.03C197.121 781.426 203.533 794.192 203.533 794.192C203.533 794.192 216.248 786.858 220.136 774.461C224.024 762.064 217.613 749.299 217.613 749.299C217.613 749.299 204.898 756.633 201.01 769.03Z" fill="#6C63FF"/>
<path d="M617.85 768.322C608.307 777.537 607.68 791.673 607.68 791.673C607.68 791.673 622.525 790.868 632.068 781.653C641.611 772.438 642.238 758.303 642.238 758.303C642.238 758.303 627.393 759.107 617.85 768.322Z" fill="#6C63FF"/>
<path d="M466.816 570.323C470.428 582.795 482.978 590.383 482.978 590.383C482.978 590.383 489.671 577.749 486.059 565.277C482.447 552.804 469.897 545.217 469.897 545.217C469.897 545.217 463.204 557.851 466.816 570.323Z" fill="#6C63FF"/>
</svg>
