<svg width="392" height="20" viewBox="0 0 392 20" fill="none" xmlns="http://www.w3.org/2000/svg">
<path d="M91.5342 15.8774C91.5342 16.618 91.4077 17.1683 91.1548 17.5283C90.9019 17.8883 90.5065 18.0684 89.9688 18.0684C89.4378 18.0684 89.0448 17.8929 88.7896 17.542C88.5343 17.1888 88.4022 16.6624 88.3931 15.9629V15.1187C88.3931 14.3872 88.5195 13.8438 88.7725 13.4883C89.0254 13.1328 89.4219 12.9551 89.9619 12.9551C90.4974 12.9551 90.8916 13.1271 91.1445 13.4712C91.3975 13.813 91.5273 14.3416 91.5342 15.0571V15.8774ZM90.9019 15.0127C90.9019 14.4772 90.8267 14.0876 90.6763 13.8438C90.5259 13.5977 90.2878 13.4746 89.9619 13.4746C89.6383 13.4746 89.4025 13.5965 89.2544 13.8403C89.1063 14.0841 89.0299 14.459 89.0254 14.9648V15.9766C89.0254 16.5143 89.1029 16.9119 89.2578 17.1694C89.415 17.4246 89.652 17.5522 89.9688 17.5522C90.2809 17.5522 90.5122 17.4315 90.6626 17.1899C90.8153 16.9484 90.895 16.5679 90.9019 16.0483V15.0127Z" fill="black"/>
<path d="M237.704 15.5049L237.957 13.0234H240.507V13.6079H238.494L238.343 14.9648C238.587 14.8213 238.864 14.7495 239.174 14.7495C239.627 14.7495 239.987 14.8999 240.254 15.2007C240.521 15.4992 240.654 15.9036 240.654 16.4141C240.654 16.9268 240.515 17.3312 240.237 17.6274C239.961 17.9214 239.575 18.0684 239.078 18.0684C238.638 18.0684 238.279 17.9465 238.001 17.7026C237.723 17.4588 237.565 17.1216 237.526 16.6909H238.125C238.163 16.9757 238.265 17.1911 238.429 17.3369C238.593 17.4805 238.809 17.5522 239.078 17.5522C239.372 17.5522 239.602 17.452 239.769 17.2515C239.937 17.0509 240.021 16.7741 240.021 16.4209C240.021 16.0882 239.93 15.8216 239.748 15.6211C239.568 15.4183 239.328 15.3169 239.027 15.3169C238.751 15.3169 238.535 15.3773 238.377 15.498L238.21 15.6348L237.704 15.5049Z" fill="black"/>
<path d="M386.492 18H385.856V13.7856L384.581 14.2539V13.6797L386.393 12.9995H386.492V18ZM391.465 15.8774C391.465 16.618 391.338 17.1683 391.085 17.5283C390.833 17.8883 390.437 18.0684 389.899 18.0684C389.368 18.0684 388.975 17.8929 388.72 17.542C388.465 17.1888 388.333 16.6624 388.324 15.9629V15.1187C388.324 14.3872 388.45 13.8438 388.703 13.4883C388.956 13.1328 389.353 12.9551 389.893 12.9551C390.428 12.9551 390.822 13.1271 391.075 13.4712C391.328 13.813 391.458 14.3416 391.465 15.0571V15.8774ZM390.833 15.0127C390.833 14.4772 390.757 14.0876 390.607 13.8438C390.457 13.5977 390.218 13.4746 389.893 13.4746C389.569 13.4746 389.333 13.5965 389.185 13.8403C389.037 14.0841 388.961 14.459 388.956 14.9648V15.9766C388.956 16.5143 389.034 16.9119 389.188 17.1694C389.346 17.4246 389.583 17.5522 389.899 17.5522C390.212 17.5522 390.443 17.4315 390.593 17.1899C390.746 16.9484 390.826 16.5679 390.833 16.0483V15.0127Z" fill="black"/>
<path d="M90 3V10.5" stroke="black"/>
<path d="M239 3V10.5" stroke="black"/>
<path d="M388 3V10.5" stroke="black"/>
<path d="M90.5 7H388" stroke="black"/>
<path d="M3.81445 9.50586L6.25195 2.46875H7.48242L4.31836 11H3.32227L0.164062 2.46875H1.38867L3.81445 9.50586ZM7.9043 7.77148C7.9043 7.15039 8.02539 6.5918 8.26758 6.0957C8.51367 5.59961 8.85352 5.2168 9.28711 4.94727C9.72461 4.67773 10.2227 4.54297 10.7812 4.54297C11.6445 4.54297 12.3418 4.8418 12.873 5.43945C13.4082 6.03711 13.6758 6.83203 13.6758 7.82422V7.90039C13.6758 8.51758 13.5566 9.07227 13.3184 9.56445C13.084 10.0527 12.7461 10.4336 12.3047 10.707C11.8672 10.9805 11.3633 11.1172 10.793 11.1172C9.93359 11.1172 9.23633 10.8184 8.70117 10.2207C8.16992 9.62305 7.9043 8.83203 7.9043 7.84766V7.77148ZM8.99414 7.90039C8.99414 8.60352 9.15625 9.16797 9.48047 9.59375C9.80859 10.0195 10.2461 10.2324 10.793 10.2324C11.3438 10.2324 11.7812 10.0176 12.1055 9.58789C12.4297 9.1543 12.5918 8.54883 12.5918 7.77148C12.5918 7.07617 12.4258 6.51367 12.0938 6.08398C11.7656 5.65039 11.3281 5.43359 10.7812 5.43359C10.2461 5.43359 9.81445 5.64648 9.48633 6.07227C9.1582 6.49805 8.99414 7.10742 8.99414 7.90039ZM16.2129 11H15.1289V2H16.2129V11ZM19.1309 11H18.0469V2H19.1309V11ZM23.502 11.1172C22.6426 11.1172 21.9434 10.8359 21.4043 10.2734C20.8652 9.70703 20.5957 8.95117 20.5957 8.00586V7.80664C20.5957 7.17773 20.7148 6.61719 20.9531 6.125C21.1953 5.62891 21.5312 5.24219 21.9609 4.96484C22.3945 4.68359 22.8633 4.54297 23.3672 4.54297C24.1914 4.54297 24.832 4.81445 25.2891 5.35742C25.7461 5.90039 25.9746 6.67773 25.9746 7.68945V8.14062H21.6797C21.6953 8.76562 21.877 9.27148 22.2246 9.6582C22.5762 10.041 23.0215 10.2324 23.5605 10.2324C23.9434 10.2324 24.2676 10.1543 24.5332 9.99805C24.7988 9.8418 25.0312 9.63477 25.2305 9.37695L25.8926 9.89258C25.3613 10.709 24.5645 11.1172 23.502 11.1172ZM23.3672 5.43359C22.9297 5.43359 22.5625 5.59375 22.2656 5.91406C21.9688 6.23047 21.7852 6.67578 21.7148 7.25H24.8906V7.16797C24.8594 6.61719 24.7109 6.19141 24.4453 5.89062C24.1797 5.58594 23.8203 5.43359 23.3672 5.43359ZM29.2266 9.41211L30.7031 4.66016H31.8633L29.3145 11.9785C28.9199 13.0332 28.293 13.5605 27.4336 13.5605L27.2285 13.543L26.8242 13.4668V12.5879L27.1172 12.6113C27.4844 12.6113 27.7695 12.5371 27.9727 12.3887C28.1797 12.2402 28.3496 11.9688 28.4824 11.5742L28.7227 10.9297L26.4609 4.66016H27.6445L29.2266 9.41211ZM38.2031 7.90039C38.2031 8.86914 37.9805 9.64844 37.5352 10.2383C37.0898 10.8242 36.4922 11.1172 35.7422 11.1172C34.9414 11.1172 34.3223 10.834 33.8848 10.2676L33.832 11H32.8359V2H33.9199V5.35742C34.3574 4.81445 34.9609 4.54297 35.7305 4.54297C36.5 4.54297 37.1035 4.83398 37.541 5.41602C37.9824 5.99805 38.2031 6.79492 38.2031 7.80664V7.90039ZM37.1191 7.77734C37.1191 7.03906 36.9766 6.46875 36.6914 6.06641C36.4062 5.66406 35.9961 5.46289 35.4609 5.46289C34.7461 5.46289 34.2324 5.79492 33.9199 6.45898V9.20117C34.252 9.86523 34.7695 10.1973 35.4727 10.1973C35.9922 10.1973 36.3965 9.99609 36.6855 9.59375C36.9746 9.19141 37.1191 8.58594 37.1191 7.77734ZM43.4883 11C43.4258 10.875 43.375 10.6523 43.3359 10.332C42.832 10.8555 42.2305 11.1172 41.5312 11.1172C40.9062 11.1172 40.3926 10.9414 39.9902 10.5898C39.5918 10.2344 39.3926 9.78516 39.3926 9.24219C39.3926 8.58203 39.6426 8.07031 40.1426 7.70703C40.6465 7.33984 41.3535 7.15625 42.2637 7.15625H43.3184V6.6582C43.3184 6.2793 43.2051 5.97852 42.9785 5.75586C42.752 5.5293 42.418 5.41602 41.9766 5.41602C41.5898 5.41602 41.2656 5.51367 41.0039 5.70898C40.7422 5.9043 40.6113 6.14062 40.6113 6.41797H39.5215C39.5215 6.10156 39.6328 5.79688 39.8555 5.50391C40.082 5.20703 40.3867 4.97266 40.7695 4.80078C41.1562 4.62891 41.5801 4.54297 42.041 4.54297C42.7715 4.54297 43.3438 4.72656 43.7578 5.09375C44.1719 5.45703 44.3867 5.95898 44.4023 6.59961V9.51758C44.4023 10.0996 44.4766 10.5625 44.625 10.9062V11H43.4883ZM41.6895 10.1738C42.0293 10.1738 42.3516 10.0859 42.6562 9.91016C42.9609 9.73438 43.1816 9.50586 43.3184 9.22461V7.92383H42.4688C41.1406 7.92383 40.4766 8.3125 40.4766 9.08984C40.4766 9.42969 40.5898 9.69531 40.8164 9.88672C41.043 10.0781 41.334 10.1738 41.6895 10.1738ZM47.2793 11H46.1953V2H47.2793V11ZM50.1973 11H49.1133V2H50.1973V11ZM57.5977 7.19727C56.6328 6.91992 55.9297 6.58008 55.4883 6.17773C55.0508 5.77148 54.832 5.27148 54.832 4.67773C54.832 4.00586 55.0996 3.45117 55.6348 3.01367C56.1738 2.57227 56.873 2.35156 57.7324 2.35156C58.3184 2.35156 58.8398 2.46484 59.2969 2.69141C59.7578 2.91797 60.1133 3.23047 60.3633 3.62891C60.6172 4.02734 60.7441 4.46289 60.7441 4.93555H59.6133C59.6133 4.41992 59.4492 4.01562 59.1211 3.72266C58.793 3.42578 58.3301 3.27734 57.7324 3.27734C57.1777 3.27734 56.7441 3.40039 56.4316 3.64648C56.123 3.88867 55.9688 4.22656 55.9688 4.66016C55.9688 5.00781 56.1152 5.30273 56.4082 5.54492C56.7051 5.7832 57.207 6.00195 57.9141 6.20117C58.625 6.40039 59.1797 6.62109 59.5781 6.86328C59.9805 7.10156 60.2773 7.38086 60.4688 7.70117C60.6641 8.02148 60.7617 8.39844 60.7617 8.83203C60.7617 9.52344 60.4922 10.0781 59.9531 10.4961C59.4141 10.9102 58.6934 11.1172 57.791 11.1172C57.2051 11.1172 56.6582 11.0059 56.1504 10.7832C55.6426 10.5566 55.25 10.248 54.9727 9.85742C54.6992 9.4668 54.5625 9.02344 54.5625 8.52734H55.6934C55.6934 9.04297 55.8828 9.45117 56.2617 9.75195C56.6445 10.0488 57.1543 10.1973 57.791 10.1973C58.3848 10.1973 58.8398 10.0762 59.1562 9.83398C59.4727 9.5918 59.6309 9.26172 59.6309 8.84375C59.6309 8.42578 59.4844 8.10352 59.1914 7.87695C58.8984 7.64648 58.3672 7.41992 57.5977 7.19727ZM63.8086 8.06445L63.1289 8.77344V11H62.0449V2H63.1289V7.44336L63.709 6.74609L65.6836 4.66016H67.002L64.5352 7.30859L67.2891 11H66.0176L63.8086 8.06445ZM69.2988 11H68.2148V4.66016H69.2988V11ZM68.127 2.97852C68.127 2.80273 68.1797 2.6543 68.2852 2.5332C68.3945 2.41211 68.5547 2.35156 68.7656 2.35156C68.9766 2.35156 69.1367 2.41211 69.2461 2.5332C69.3555 2.6543 69.4102 2.80273 69.4102 2.97852C69.4102 3.1543 69.3555 3.30078 69.2461 3.41797C69.1367 3.53516 68.9766 3.59375 68.7656 3.59375C68.5547 3.59375 68.3945 3.53516 68.2852 3.41797C68.1797 3.30078 68.127 3.1543 68.127 2.97852ZM72.2168 11H71.1328V2H72.2168V11ZM75.1348 11H74.0508V2H75.1348V11Z" fill="black"/>
</svg>
